<svg width="21" height="23" viewBox="0 0 21 23" fill="none" xmlns="http://www.w3.org/2000/svg">
<path d="M8.10153 9.12748L7.70588 8.7362M13.2986 14.2671L12.9029 13.8758M7.70588 14.2627L13.2941 8.7362M20 15.6996V7.29931C19.9995 6.93162 19.9018 6.57045 19.7168 6.25154C19.5317 5.93263 19.2657 5.66705 18.9449 5.48109L11.5551 1.28095C11.2346 1.09693 10.8706 1 10.5 1C10.1294 1 9.76542 1.09693 9.44494 1.28095L2.05507 5.48109C1.73319 5.66578 1.4662 5.93108 1.28098 6.25027C1.09576 6.56947 0.998851 6.93129 1.00001 7.29931V15.7018C1.00073 16.0693 1.09845 16.4302 1.28349 16.7489C1.46853 17.0676 1.73449 17.333 2.05507 17.5189L9.44494 21.719C9.76542 21.9031 10.1294 22 10.5 22C10.8706 22 11.2346 21.9031 11.5551 21.719L18.9449 17.5189C19.267 17.3341 19.5341 17.0687 19.7193 16.7492C19.9045 16.4298 20.0013 16.0678 20 15.6996Z" stroke="#FCB527" stroke-width="1.5" stroke-linecap="round" stroke-linejoin="round"/>
</svg>
