<svg width="22" height="21" viewBox="0 0 22 21" fill="none" xmlns="http://www.w3.org/2000/svg">
<path d="M20.7571 9.12505C20.8949 8.19946 20.8487 7.25575 20.621 6.34807C20.3103 5.10773 19.6677 3.97539 18.7622 3.07253C17.8594 2.16689 16.7271 1.52414 15.4867 1.21323C14.579 0.985815 13.6353 0.939759 12.7097 1.0777M16.6259 8.68798C16.7019 8.18279 16.6582 7.66679 16.4982 7.1816C16.3383 6.69641 16.0665 6.25559 15.705 5.89468C15.344 5.53309 14.9032 5.26135 14.418 5.10139C13.9328 4.94142 13.4168 4.89769 12.9116 4.97374" stroke="#FCB527" stroke-linecap="round" stroke-linejoin="round"/>
<path d="M5.84141 2.69534C6.03559 2.69544 6.2262 2.74748 6.39349 2.84605C6.56078 2.94463 6.69866 3.08616 6.79284 3.25596L8.12472 5.65411C8.21065 5.80887 8.25755 5.98226 8.26134 6.15924C8.26514 6.33622 8.22571 6.51146 8.14649 6.66976L6.86359 9.23501C6.86359 9.23501 7.23534 11.1466 8.79093 12.7021C10.3471 14.2577 12.2521 14.6235 12.2521 14.6235L14.8168 13.3406C14.9752 13.2614 15.1506 13.222 15.3276 13.2259C15.5047 13.2298 15.6782 13.2768 15.833 13.3629L18.2387 14.7002C18.4082 14.7946 18.5494 14.9326 18.6477 15.0999C18.746 15.2671 18.7978 15.4576 18.7977 15.6517V18.4134C18.7977 19.8193 17.4914 20.8355 16.159 20.3854C13.4223 19.4622 9.17466 17.7036 6.4815 15.0116C3.78944 12.319 2.03137 8.07077 1.10771 5.33407C0.658126 4.00164 1.67377 2.69534 3.08022 2.69534H5.84141Z" stroke="#FCB527" stroke-linejoin="round"/>
</svg>
