<svg width="9" height="14" viewBox="0 0 9 14" fill="none" xmlns="http://www.w3.org/2000/svg">
	<path d="M8.35715 6.02777L2.74406 0.414671C2.63939 0.31 2.51513 0.22697 2.37837 0.170323C2.24161 0.113675 2.09503 0.0845184 1.947 0.0845184C1.64804 0.0845184 1.36133 0.203278 1.14994 0.414671C1.04527 0.519343 0.962238 0.643606 0.905591 0.780365C0.848943 0.917125 0.819787 1.0637 0.819787 1.21173C0.819787 1.51069 0.938547 1.7974 1.14994 2.00879L5.9772 6.82483L1.14994 11.6409C1.04472 11.7452 0.961202 11.8694 0.904209 12.0062C0.847215 12.143 0.817871 12.2897 0.817871 12.4379C0.817871 12.5861 0.847215 12.7329 0.904209 12.8697C0.961202 13.0065 1.04472 13.1306 1.14994 13.235C1.2543 13.3402 1.37846 13.4237 1.51527 13.4807C1.65207 13.5377 1.7988 13.567 1.947 13.567C2.0952 13.567 2.24193 13.5377 2.37873 13.4807C2.51553 13.4237 2.6397 13.3402 2.74406 13.235L8.35715 7.62188C8.46237 7.51752 8.54589 7.39336 8.60289 7.25656C8.65988 7.11976 8.68922 6.97302 8.68922 6.82483C8.68922 6.67663 8.65988 6.52989 8.60289 6.39309C8.54589 6.25629 8.46237 6.13213 8.35715 6.02777Z" fill="#FFD600" />
  </svg>
