<svg width="20" height="20" viewBox="0 0 20 20" fill="none" xmlns="http://www.w3.org/2000/svg">
<path d="M19 10.0002C19 8.11964 18.411 6.28634 17.3157 4.75775C16.2203 3.22916 14.6736 2.08208 12.8929 1.47762C11.1122 0.873149 9.18685 0.841662 7.3873 1.38758C5.58776 1.93349 4.00442 3.02939 2.85967 4.52134C1.71492 6.01329 1.06627 7.82635 1.00481 9.70587C0.943352 11.5854 1.47218 13.437 2.51702 15.0005C3.56187 16.5641 5.07023 17.761 6.83027 18.4233C8.5903 19.0857 10.5136 19.18 12.33 18.6932" stroke="#A1B0B5" stroke-width="2" stroke-linecap="round"/>
<path d="M10 14.0002C12.2091 14.0002 14 12.2093 14 10.0002C14 7.79103 12.2091 6.00017 10 6.00017C7.79086 6.00017 6 7.79103 6 10.0002C6 12.2093 7.79086 14.0002 10 14.0002Z" stroke="#A1B0B5" stroke-width="2"/>
<path d="M14 7.00017V11.5002C14 12.1632 14.2634 12.7991 14.7322 13.2679C15.2011 13.7368 15.837 14.0002 16.5 14.0002C17.163 14.0002 17.7989 13.7368 18.2678 13.2679C18.7366 12.7991 19 12.1632 19 11.5002V10.0002" stroke="#A1B0B5" stroke-width="2" stroke-linecap="round"/>
</svg>
