<svg width="18" height="22" viewBox="0 0 18 22" fill="none" xmlns="http://www.w3.org/2000/svg">
<path fill-rule="evenodd" clip-rule="evenodd" d="M0.25 9.143C0.25 4.244 4.155 0.25 9 0.25C13.845 0.25 17.75 4.244 17.75 9.143C17.75 11.508 17.076 14.048 15.884 16.242C14.694 18.433 12.956 20.337 10.781 21.354C10.2235 21.615 9.61553 21.7503 9 21.7503C8.38447 21.7503 7.77645 21.615 7.219 21.354C5.044 20.337 3.306 18.434 2.116 16.242C0.924 14.048 0.25 11.508 0.25 9.143ZM9 1.75C5.008 1.75 1.75 5.047 1.75 9.143C1.75 11.24 2.353 13.535 3.434 15.526C4.516 17.519 6.046 19.15 7.854 19.995C8.21252 20.163 8.60359 20.25 8.9995 20.25C9.39541 20.25 9.78648 20.163 10.145 19.995C11.954 19.15 13.484 17.519 14.566 15.526C15.647 13.536 16.25 11.24 16.25 9.143C16.25 5.047 12.992 1.75 9 1.75ZM9 6.75C8.70453 6.75 8.41194 6.8082 8.13896 6.92127C7.86598 7.03434 7.61794 7.20008 7.40901 7.40901C7.20008 7.61794 7.03434 7.86598 6.92127 8.13896C6.8082 8.41194 6.75 8.70453 6.75 9C6.75 9.29547 6.8082 9.58806 6.92127 9.86104C7.03434 10.134 7.20008 10.3821 7.40901 10.591C7.61794 10.7999 7.86598 10.9657 8.13896 11.0787C8.41194 11.1918 8.70453 11.25 9 11.25C9.59674 11.25 10.169 11.0129 10.591 10.591C11.0129 10.169 11.25 9.59674 11.25 9C11.25 8.40326 11.0129 7.83097 10.591 7.40901C10.169 6.98705 9.59674 6.75 9 6.75ZM5.25 9C5.25 8.00544 5.64509 7.05161 6.34835 6.34835C7.05161 5.64509 8.00544 5.25 9 5.25C9.99456 5.25 10.9484 5.64509 11.6517 6.34835C12.3549 7.05161 12.75 8.00544 12.75 9C12.75 9.99456 12.3549 10.9484 11.6517 11.6517C10.9484 12.3549 9.99456 12.75 9 12.75C8.00544 12.75 7.05161 12.3549 6.34835 11.6517C5.64509 10.9484 5.25 9.99456 5.25 9Z" fill="#A1B0B5"/>
</svg>
