<svg id="refresh" width="20" height="15" viewBox="0 0 20 15" fill="none" xmlns="http://www.w3.org/2000/svg">
<path d="M10.0263 15C11.8814 15 13.2614 14.382 14.6394 12.934C14.818 12.7463 14.9183 12.4919 14.9182 12.2266C14.9181 11.9614 14.8176 11.707 14.6389 11.5195C14.4602 11.332 14.2179 11.2267 13.9653 11.2268C13.7127 11.2269 13.4704 11.3323 13.2919 11.52C12.2652 12.599 11.3805 13 10.0263 13C9.33829 13.002 8.65676 12.8607 8.02117 12.5841C7.38558 12.3076 6.80857 11.9014 6.32358 11.389C5.36838 10.385 4.89316 9.31099 4.8065 7.961L5.99407 9.20699C6.08249 9.29984 6.18746 9.37349 6.30298 9.42373C6.41851 9.47398 6.54233 9.49984 6.66737 9.49984C6.79242 9.49984 6.91624 9.47398 7.03176 9.42373C7.14729 9.37349 7.25226 9.29984 7.34068 9.20699C7.4291 9.11415 7.49923 9.00393 7.54709 8.88262C7.59494 8.76131 7.61957 8.6313 7.61957 8.5C7.61957 8.36869 7.59494 8.23868 7.54709 8.11737C7.49923 7.99607 7.4291 7.88584 7.34068 7.793L3.81035 4.08601L0.280021 7.793C0.191276 7.88565 0.120851 7.99581 0.0727955 8.11714C0.024738 8.23848 -3.65803e-07 8.36859 -3.71547e-07 8.5C-3.77291e-07 8.6314 0.0247379 8.76151 0.0727955 8.88285C0.120851 9.00418 0.191276 9.11434 0.280021 9.20699C0.368387 9.29994 0.473339 9.37368 0.588872 9.42399C0.704406 9.4743 0.828252 9.50019 0.953327 9.50019C1.0784 9.50019 1.20225 9.4743 1.31778 9.42399C1.43331 9.37368 1.53827 9.29994 1.62663 9.20699L2.89896 7.87C2.97705 9.79299 3.65321 11.412 4.97601 12.803C5.63754 13.5018 6.42455 14.0558 7.29146 14.4329C8.15836 14.8101 9.08792 15.0028 10.0263 15ZM10.0006 2.00002C11.3996 2.00002 12.7147 2.57202 13.7042 3.61102C14.6651 4.62001 15.1403 5.70301 15.2222 7.068L14.008 5.79301C13.8751 5.65236 13.7053 5.55642 13.5202 5.51737C13.3352 5.47833 13.1433 5.49795 12.9689 5.57375C12.7946 5.64954 12.6456 5.77808 12.541 5.94301C12.4363 6.10795 12.3808 6.30183 12.3814 6.5C12.3813 6.63134 12.4059 6.76141 12.4538 6.88274C12.5016 7.00406 12.5719 7.11426 12.6605 7.207L16.1908 10.914L19.7211 7.207C19.8095 7.11416 19.8797 7.00394 19.9275 6.88263C19.9754 6.76132 20 6.63131 20 6.5C20 6.3687 19.9754 6.23869 19.9275 6.11738C19.8797 5.99607 19.8095 5.88585 19.7211 5.79301C19.6327 5.70016 19.5277 5.62651 19.4122 5.57627C19.2967 5.52602 19.1728 5.50016 19.0478 5.50016C18.9228 5.50016 18.7989 5.52602 18.6834 5.57627C18.5679 5.62651 18.4629 5.70016 18.3745 5.79301L17.126 7.104C17.0441 5.19001 16.3679 3.57902 15.0508 2.19702C14.3893 1.49821 13.6023 0.944188 12.7354 0.567062C11.8685 0.189936 10.9389 -0.00279701 10.0006 3.02232e-05C8.1454 3.01421e-05 6.76546 0.618028 5.38743 2.06602C5.29874 2.15874 5.22839 2.26895 5.18042 2.39032C5.13244 2.51169 5.10779 2.64182 5.10788 2.77323C5.10797 2.90463 5.1328 3.03473 5.18093 3.15602C5.22907 3.27732 5.29957 3.38743 5.38838 3.48002C5.47682 3.57299 5.58186 3.64675 5.69747 3.69707C5.81308 3.7474 5.93701 3.7733 6.06216 3.7733C6.18731 3.7733 6.31124 3.7474 6.42685 3.69708C6.54246 3.64675 6.64749 3.57299 6.73594 3.48002C7.76161 2.40102 8.64634 2.00002 10.0006 2.00002Z" fill="#A1B0B5"/>
</svg>
