<svg id="right-arrow" width="13" height="22" viewBox="0 0 13 22" fill="none" xmlns="http://www.w3.org/2000/svg">
<path d="M12.4518 12.3022L3.18146 21.4613C3.00859 21.6321 2.80336 21.7676 2.57749 21.86C2.35163 21.9524 2.10954 22 1.86507 22C1.37132 22 0.897804 21.8062 0.548675 21.4613C0.375804 21.2905 0.238675 21.0877 0.145118 20.8646C0.0515611 20.6414 0.00340904 20.4022 0.00340902 20.1607C0.00340898 19.6729 0.199547 19.205 0.548675 18.8601L8.52118 11.0016L0.548674 3.14305C0.374894 2.97276 0.236963 2.77016 0.142834 2.54694C0.048705 2.32371 0.0002424 2.08428 0.000242378 1.84246C0.000242357 1.60064 0.0487049 1.36121 0.142834 1.13798C0.236962 0.914757 0.374894 0.712158 0.548673 0.541866C0.721033 0.370172 0.926096 0.233892 1.15203 0.140892C1.37797 0.0478934 1.6203 1.32098e-05 1.86506 1.31884e-05C2.10982 1.3167e-05 2.35216 0.0478933 2.5781 0.140892C2.80403 0.233892 3.0091 0.370172 3.18146 0.541866L12.4518 9.70098C12.6256 9.87127 12.7635 10.0739 12.8577 10.2971C12.9518 10.5203 13.0002 10.7598 13.0002 11.0016C13.0002 11.2434 12.9518 11.4828 12.8577 11.7061C12.7635 11.9293 12.6256 12.1319 12.4518 12.3022Z" fill="white"/>
</svg>
