<svg width="31" height="18" viewBox="0 0 31 18" fill="none" xmlns="http://www.w3.org/2000/svg">
<path fill-rule="evenodd" clip-rule="evenodd" d="M10.2152 1.95414C10.6273 2.14949 11.5886 2.04784 11.9339 3.23888C12.245 4.31177 12.2322 6.87757 11.9918 8.07187C11.3269 11.3745 8.5205 6.15098 7.82764 5.00353C7.46896 4.40934 6.84491 3.05412 6.56761 2.39291C6.08922 1.25199 4.94229 1.495 3.57533 1.495C3.06109 1.495 2.71394 1.54206 2.22876 1.54104C1.46956 1.53921 0 1.39397 0 2.09184C0 2.62574 0.305944 3.15923 0.541635 3.62224L1.81156 6.13122C2.03345 6.55288 2.237 6.97555 2.48773 7.3909L3.1777 8.5909C4.99482 11.5578 7.17805 15.0378 10.4474 16.6452C12.9255 17.8635 14.0918 17.8389 16.8088 17.8389C17.2318 17.8389 17.7631 17.6111 17.91 17.3209C18.0892 16.9668 18.0709 16.381 18.1101 15.9117C18.2059 14.7685 18.7675 13.2597 20.1252 14.1924C20.7684 14.6345 21.55 15.664 22.137 16.2435C22.4551 16.5574 22.8399 16.9685 23.1972 17.2154C23.3801 17.3419 23.683 17.5244 23.8721 17.604C24.9947 18.0766 26.284 17.8385 27.6743 17.8389C28.4458 17.8391 29.7907 17.965 30.4412 17.5445C31.4723 16.8778 30.4412 15.6864 29.8567 14.9465C29.5227 14.5241 28.2344 13.1748 27.7783 12.7775C24.7924 10.1779 25.3899 10.5994 28.4835 6.51886C29.1325 5.66271 30.8781 3.41936 30.8781 2.22954C30.8781 1.60582 30.2096 1.55245 29.7092 1.49989C29.4518 1.473 29.3803 1.53941 29.1156 1.54267C28.2932 1.55285 24.5479 1.45365 24.0794 1.61335C23.7767 1.71663 23.6047 2.02442 23.4817 2.30797C22.7857 3.91028 22.3113 5.01372 21.3133 6.49971C20.9093 7.10124 19.6153 9.11604 18.8054 9.11604C18.2252 9.11604 18.0161 7.97348 18.0161 7.41738C18.0161 5.73074 18.109 4.19199 18.109 2.55098C18.109 2.20164 18.0326 1.83539 17.9164 1.59359C17.409 0.537204 14.6456 0.76046 13.3728 0.76046C12.4535 0.76046 10.9713 0.854569 10.399 1.58483C10.31 1.6987 10.2317 1.75961 10.2152 1.95414Z" fill="#A1B0B5"/>
</svg>
