<svg id="vk" width="20" height="11" viewBox="0 0 20 11" fill="none" xmlns="http://www.w3.org/2000/svg">
<path fill-rule="evenodd" clip-rule="evenodd" d="M6.3405 0.937068C6.59625 1.05832 7.19292 0.995228 7.40724 1.73449C7.60034 2.40042 7.59241 3.99299 7.44317 4.73428C7.03052 6.78416 5.28859 3.542 4.85854 2.82979C4.6359 2.46098 4.24857 1.61981 4.07644 1.20941C3.77952 0.501248 3.06763 0.652084 2.21917 0.652084C1.89999 0.652084 1.68452 0.68129 1.38337 0.680658C0.912143 0.67952 0 0.589373 0 1.02254C0 1.35392 0.189896 1.68505 0.336187 1.97244L1.12442 3.52974C1.26214 3.79145 1.38848 4.05381 1.54411 4.31161L1.97237 5.05643C3.10024 6.89795 4.45534 9.05796 6.48461 10.0557C8.02271 10.8119 8.74662 10.7966 10.4331 10.7966C10.6956 10.7966 11.0254 10.6552 11.1166 10.475C11.2278 10.2553 11.2164 9.89167 11.2407 9.60037C11.3002 8.89081 11.6488 7.95431 12.4915 8.53326C12.8907 8.80762 13.3759 9.44662 13.7402 9.80633C13.9376 10.0012 14.1765 10.2563 14.3982 10.4095C14.5118 10.4881 14.6998 10.6013 14.8172 10.6508C15.514 10.9441 16.3142 10.7963 17.1771 10.7966C17.656 10.7967 18.4908 10.8748 18.8945 10.6139C19.5345 10.2 18.8945 9.46053 18.5317 9.00132C18.3244 8.73909 17.5248 7.90159 17.2417 7.65504C15.3884 6.04148 15.7592 6.30308 17.6794 3.77034C18.0822 3.23894 19.1657 1.84651 19.1657 1.10801C19.1657 0.720864 18.7508 0.687739 18.4402 0.655118C18.2804 0.638429 18.2361 0.679647 18.0718 0.68167C17.5613 0.687991 15.2366 0.626418 14.9458 0.725543C14.758 0.789645 14.6512 0.980688 14.5748 1.15668C14.1429 2.15122 13.8484 2.83611 13.2289 3.75846C12.9782 4.13182 12.175 5.38238 11.6723 5.38238C11.3122 5.38238 11.1824 4.67321 11.1824 4.32804C11.1824 3.28116 11.2401 2.32608 11.2401 1.30752C11.2401 1.09069 11.1926 0.863356 11.1205 0.713278C10.8056 0.0575886 9.09035 0.196161 8.30033 0.196161C7.72975 0.196161 6.8098 0.254574 6.45456 0.707842C6.39932 0.778519 6.35073 0.816323 6.3405 0.937068Z" fill="white" fill-opacity="1"/>
</svg>
