<svg width="25" height="25" viewBox="0 0 25 25" fill="none" xmlns="http://www.w3.org/2000/svg">
<path fill-rule="evenodd" clip-rule="evenodd" d="M25 12.178C25 18.9416 19.5052 24.3562 12.7258 24.3562C10.5745 24.3562 8.55361 23.806 6.79424 22.841L0 25L2.21486 18.4655C1.09831 16.6315 0.455094 14.4774 0.455094 12.1777C0.455094 5.45207 5.94872 0 12.7281 0C19.5061 0.00151327 25 5.45295 25 12.178ZM12.7258 2.00572C7.03628 2.00572 2.44416 6.53509 2.44416 12.1806C2.44416 14.4215 3.13875 16.4963 4.37397 18.1823L3.08578 21.9836L7.04942 20.7243C8.67984 21.7933 10.6306 22.417 12.7258 22.417C18.4354 22.417 23.0455 17.8238 23.0455 12.178C23.0455 6.53509 18.4433 2.00572 12.7258 2.00572ZM18.9247 14.9834C18.8483 14.8607 18.6477 14.7862 18.3476 14.6357C18.0474 14.4851 16.5667 13.7637 16.2927 13.6667C16.0158 13.5966 15.8151 13.5157 15.6144 13.8147C15.4155 14.114 14.8384 14.7862 14.6623 14.9852C14.4873 15.1848 14.3121 15.2095 14.0111 15.0616C13.7103 14.9111 12.7397 14.5967 11.5901 13.5807C10.696 12.7882 10.0917 11.8244 9.91738 11.5135C9.74064 11.2148 9.89954 11.0536 10.0488 10.9053C10.1834 10.7706 10.3493 10.5561 10.5001 10.4107C10.6509 10.2072 10.7008 10.0843 10.8011 9.88435C10.8997 9.68468 10.8794 9.51097 10.7756 9.36005C10.7008 9.20991 10.1001 7.74284 9.84816 7.14566C9.59776 6.54847 9.34743 6.64699 9.1715 6.64699C8.99628 6.64699 8.79581 6.62278 8.5951 6.62278C8.39447 6.62278 8.06849 6.69685 7.79299 6.99616C7.5175 7.29515 6.74048 8.01674 6.74048 9.48589C6.74048 10.9562 7.81728 12.4282 7.96813 12.5726C8.1197 12.8081 10.0583 15.8845 13.1082 17.0798C16.1678 18.2738 16.1678 17.8748 16.7188 17.8238C17.2705 17.7745 18.5461 17.1025 18.7488 16.4069C18.9997 15.708 18.9997 15.1078 18.9247 14.9834Z" fill="#A1B0B5"/>
</svg>
