<svg id="whatsapp" width="18" height="18" viewBox="0 0 18 18" fill="none" xmlns="http://www.w3.org/2000/svg">
<path fill-rule="evenodd" clip-rule="evenodd" d="M17.6133 8.3801C17.6133 13.0344 13.8321 16.7604 9.16695 16.7604C7.68662 16.7604 6.29595 16.3818 5.08527 15.7177L0.409912 17.2034L1.93404 12.7068C1.1657 11.4447 0.723078 9.96244 0.723078 8.37988C0.723078 3.75176 4.50344 0 9.16859 0C13.8327 0.00104133 17.6133 3.75236 17.6133 8.3801ZM9.16695 1.38021C5.25182 1.38021 2.09182 4.49703 2.09182 8.38191C2.09182 9.92396 2.5698 11.3517 3.41979 12.5119L2.53335 15.1277L5.26087 14.2611C6.38282 14.9967 7.7252 15.4259 9.16695 15.4259C13.0959 15.4259 16.2683 12.2652 16.2683 8.3801C16.2683 4.49703 13.1014 1.38021 9.16695 1.38021ZM13.4327 10.3106C13.3801 10.2262 13.2421 10.1749 13.0355 10.0713C12.829 9.9677 11.81 9.47131 11.6215 9.4045C11.4309 9.35627 11.2929 9.30064 11.1547 9.50639C11.0178 9.71235 10.6207 10.1749 10.4995 10.3118C10.3791 10.4492 10.2585 10.4662 10.0514 10.3644C9.84442 10.2609 9.17654 10.0445 8.38546 9.34536C7.7702 8.80003 7.35438 8.13682 7.23441 7.92285C7.11279 7.71727 7.22213 7.60639 7.32484 7.50429C7.41746 7.41161 7.53162 7.26401 7.63543 7.16399C7.73918 7.02396 7.77349 6.93934 7.84254 6.80177C7.91039 6.66437 7.89642 6.54484 7.82501 6.44098C7.77349 6.33767 7.36013 5.32812 7.18678 4.91718C7.01447 4.50623 6.84221 4.57403 6.72114 4.57403C6.60057 4.57403 6.46262 4.55737 6.3245 4.55737C6.18644 4.55737 5.96212 4.60834 5.77254 4.8143C5.58297 5.02005 5.04827 5.5166 5.04827 6.52757C5.04827 7.53936 5.78926 8.55225 5.89306 8.65167C5.99736 8.81368 7.33136 10.9307 9.43013 11.7532C11.5355 12.5749 11.5355 12.3003 11.9147 12.2652C12.2943 12.2313 13.1721 11.7688 13.3116 11.2901C13.4843 10.8092 13.4843 10.3962 13.4327 10.3106Z" fill="white" fill-opacity="1"/>
</svg>
